<?xml version="1.0" encoding="UTF-8"?>
<svg version="1.1" xmlns="http://www.w3.org/2000/svg" width="512" height="512">
<path d="M0 0 C-1.30710937 0.92619141 -1.30710937 0.92619141 -2.640625 1.87109375 C-20.34965399 14.44921205 -37.38361957 27.79319409 -54.20019531 41.53222656 C-55.77310294 42.81496132 -57.35098284 44.09159413 -58.9296875 45.3671875 C-69.5050415 53.93416567 -79.74737813 62.90111497 -89.828125 72.04296875 C-91.76047481 73.78416885 -93.7165793 75.49031829 -95.6875 77.1875 C-105.83675056 86.0397875 -115.57923982 95.37974137 -125 105 C-123.49452077 108.56768265 -121.42825217 110.75335262 -118.640625 113.4140625 C-117.77179688 114.25839844 -116.90296875 115.10273438 -116.0078125 115.97265625 C-114.18909242 117.72182188 -112.36625734 119.46672031 -110.5390625 121.20703125 C-105.52527513 126.09510419 -101.52855685 130.76341832 -98.171875 136.92700195 C-96.52328729 139.84328493 -94.50352759 141.78096418 -92 144 C-91.18660156 144.74636719 -90.37320313 145.49273437 -89.53515625 146.26171875 C-85.09796627 150.59080685 -85.09796627 150.59080685 -80 154 C-80 154.66 -80 155.32 -80 156 C-79.45140603 156.23127688 -78.90281206 156.46255377 -78.33759403 156.70083904 C-64.94924987 164.14165801 -53.75890501 179.08431335 -42.97964346 189.86031377 C-40.30322675 192.53485502 -37.62397212 195.20655115 -34.94514465 197.87867737 C-29.11238397 203.69796332 -23.28330536 209.52092786 -17.45506787 215.34474349 C-13.81063569 218.98639891 -10.16547282 222.62732235 -6.52018547 226.26812172 C3.59169839 236.36783508 13.70265089 246.46847878 23.81014919 256.57258129 C24.45455773 257.21677026 25.09896626 257.86095923 25.76290232 258.52466907 C26.40873282 259.17028129 27.05456332 259.81589351 27.71996444 260.48106974 C29.02839597 261.78905782 30.33682904 263.09704433 31.64526367 264.4050293 C32.29427354 265.05381773 32.94328341 265.70260617 33.61196024 266.37105487 C44.14852262 276.90366179 54.69183342 287.42948588 65.2380346 297.9524407 C76.08997428 308.78065419 86.93626719 319.61449714 97.77693325 330.45399743 C103.8542411 336.53039009 109.93392605 342.60436055 116.01986504 348.6721096 C121.19558894 353.83241654 126.36612203 358.99785522 131.53001737 364.17000004 C134.16195292 366.80583422 136.79622025 369.43921767 139.43713379 372.06605911 C142.30426489 374.918052 145.15954991 377.78162445 148.01390076 380.64640808 C149.25839679 381.8788195 149.25839679 381.8788195 150.52803415 383.13612813 C164.05421598 396.77802874 164.05421598 396.77802874 164.3125 405.75 C164.24913295 410.63630347 163.35632281 413.29038005 160 417 C155.56216361 421.11311665 151.77275321 421.48357403 145.9765625 421.62890625 C137.3334303 419.80273265 131.17845702 412.60051946 125.20152283 406.5690155 C124.23504036 405.60456031 123.26790065 404.64076338 122.30016619 403.67756444 C119.65702694 401.04303367 117.02327515 398.39929281 114.39102876 395.75388467 C111.5450407 392.89696271 108.69036621 390.04874287 105.83677673 387.19941711 C100.25327688 381.62154203 94.67776899 376.03574387 89.10489862 370.44725104 C82.61040941 363.93519549 76.10784041 357.43123297 69.60489089 350.92762772 C57.99898887 339.32003864 46.40015984 327.70540786 34.80541992 316.08666992 C23.56313811 304.82113659 12.31632679 293.56015261 1.06420898 282.30444336 C0.37131163 281.61132324 -0.32158573 280.91820311 -1.03547997 280.20407935 C-2.4314153 278.80770141 -3.82735092 277.41132377 -5.22328683 276.01494642 C-5.91194952 275.32606416 -6.60061221 274.63718191 -7.31014347 273.92742443 C-7.99710647 273.24024545 -8.68406946 272.55306646 -9.39184952 271.84506388 C-20.12617657 261.10703153 -30.85667476 250.36517351 -41.58664732 239.62279018 C-45.47071813 235.7342916 -49.35528198 231.84628637 -53.24019057 227.9586248 C-59.40414755 221.79022625 -65.56641691 215.62015183 -71.72532708 209.44671389 C-74.53813051 206.62732552 -77.35167906 203.80869257 -80.16738129 200.99219894 C-82.74846417 198.41032431 -85.32720339 195.82613201 -87.90414076 193.24011997 C-89.27086559 191.86973085 -90.63999015 190.50173632 -92.00921875 189.13384885 C-96.8735382 184.24685722 -101.53368542 179.25300183 -106 174 C-106.4842197 173.43809894 -106.9684394 172.87619789 -107.46733242 172.29726952 C-108.79950488 170.74735261 -110.1188838 169.18646637 -111.4375 167.625 C-111.88287109 167.10550781 -112.32824219 166.58601562 -112.78710938 166.05078125 C-116 162.23084677 -116 162.23084677 -116 160 C-116.825 159.79375 -117.65 159.5875 -118.5 159.375 C-127.434948 155.86484186 -133.9015682 148.34811147 -140.5 141.625 C-141.4178125 140.69816406 -142.335625 139.77132812 -143.28125 138.81640625 C-145.52548985 136.5487889 -147.76489422 134.27661489 -150 132 C-153.43930583 133.48126357 -155.66954338 135.42427446 -158.30078125 138.0703125 C-159.11353516 138.885 -159.92628906 139.6996875 -160.76367188 140.5390625 C-162.0253418 141.81910156 -162.0253418 141.81910156 -163.3125 143.125 C-164.14201172 143.95515625 -164.97152344 144.7853125 -165.82617188 145.640625 C-170.18102659 150.02641397 -174.38550959 154.48740082 -178.41577148 159.17285156 C-180.8284191 161.95544592 -183.35581299 164.62675167 -185.875 167.3125 C-190.33504356 172.1064914 -194.56309553 177.02510996 -198.6640625 182.1328125 C-201.33874594 185.41578515 -204.10207847 188.61263588 -206.875 191.8125 C-212.34017254 198.14364822 -217.53255938 204.65722052 -222.65429688 211.26757812 C-224.41620852 213.53581561 -226.19333964 215.79185605 -227.97119141 218.04760742 C-230.31922634 221.02773985 -232.6597129 224.01378171 -235 227 C-235.56686523 227.72300293 -236.13373047 228.44600586 -236.71777344 229.19091797 C-243.63307671 238.01924321 -250.51098063 246.85088573 -257 256 C-258.19007242 252.42978273 -257.76658632 251.72511851 -256.40234375 248.328125 C-256.02029785 247.36946533 -255.63825195 246.41080566 -255.24462891 245.4230957 C-254.81327637 244.37597412 -254.38192383 243.32885254 -253.9375 242.25 C-253.49067871 241.15324951 -253.04385742 240.05649902 -252.58349609 238.92651367 C-243.55586131 217.01297943 -233.8487868 195.54997625 -222 175 C-221.57267578 174.25153809 -221.14535156 173.50307617 -220.70507812 172.73193359 C-208.71751191 151.77239408 -195.59760212 131.56102836 -180.7421875 112.515625 C-178.99849256 109.99782334 -177.82514908 107.94828548 -177 105 C-177.35747314 103.84395264 -177.35747314 103.84395264 -177.72216797 102.66455078 C-178 100 -178 100 -176.296875 97.48876953 C-171.30445326 92.38053433 -171.30445326 92.38053433 -169.48779297 90.59570312 C-168.00756736 89.13248044 -166.56845781 87.63593892 -165.12890625 86.1328125 C-164.19949219 85.2046875 -163.27007812 84.2765625 -162.3125 83.3203125 C-161.46300781 82.46711426 -160.61351562 81.61391602 -159.73828125 80.73486328 C-156.09050915 78.42378371 -154.14417341 79.24837086 -150 80 C-147.78369727 79.1737317 -147.78369727 79.1737317 -146.00390625 77.59765625 C-145.29306885 77.04513184 -144.58223145 76.49260742 -143.84985352 75.92333984 C-143.09502686 75.3092627 -142.3402002 74.69518555 -141.5625 74.0625 C-139.87875268 72.75945934 -138.1910639 71.46149991 -136.5 70.16796875 C-135.60925781 69.48395996 -134.71851563 68.79995117 -133.80078125 68.09521484 C-118.967874 56.99897966 -103.02794193 47.25968352 -87 38 C-86.28811523 37.58621094 -85.57623047 37.17242187 -84.84277344 36.74609375 C-62.99606058 24.1113607 -40.41309843 13.24820924 -16.88964844 4.13964844 C-14.96448542 3.3803834 -13.05061921 2.59182155 -11.14941406 1.77441406 C-10.26737305 1.39768555 -9.38533203 1.02095703 -8.4765625 0.6328125 C-7.32148193 0.12451904 -7.32148193 0.12451904 -6.14306641 -0.39404297 C-3.68881986 -1.08798691 -2.37834073 -0.8323855 0 0 Z " fill="#000000" transform="translate(303,46)"/>
</svg>
